<svg id="Layer_1" data-name="Layer 1" xmlns="http://www.w3.org/2000/svg" viewBox="0 0 160.18 47.44"><defs><style>.cls-1,.cls-2{fill:#ed1c24;}.cls-1{fill-rule:evenodd;}</style></defs><title>logo</title><polygon class="cls-1" points="71.95 30.5 71.95 8.37 92.08 30.5 106.29 30.5 106.29 0.3 94.74 0.3 94.74 23.33 73.43 0.3 60.1 0.3 60.1 30.5 71.95 30.5 71.95 30.5"/><path class="cls-1" d="M160.18,30.5V24.82H130.86c-4.73,0-4.14-2.69-4.14-4.79V12.26c0-2.09-.59-5.68,4.14-6.28h29.32V.3H124.35c-8,0-12.14,7.48-12.14,15.55,0,7.78,3,14.65,11.84,14.65Z" transform="translate(0 0)"/><path class="cls-1" d="M13.62,30.8C3.26,30.8,0,23.63,0,15.85,0,7.48,4.74,0,13.92,0H52.4V5.68H19.54c-5,.9-4.74,4.19-4.74,6.28l.3,7.78c0,2.09-.59,6,4.44,5.68H38.19a4.94,4.94,0,0,0,3-3.89v-3H26.94V13.16H52.4V30.8Z" transform="translate(0 0)"/><path class="cls-2" d="M2.49,35.75H4.58v10.3h7.75v1.39H2.49Z" transform="translate(0 0)"/><path class="cls-2" d="M21.44,35.75h2.12V47.44H21.44Z" transform="translate(0 0)"/><path class="cls-2" d="M32.94,35.75l4.44,10,4.39-10h2.34L38.47,47.44H36.25L30.62,35.75Z" transform="translate(0 0)"/><path class="cls-2" d="M50.86,35.75H62.07v1.43H52.9v3.55h8.48v1.35H52.9v4h9.33v1.39H50.86Z" transform="translate(0 0)"/><path class="cls-2" d="M86.81,35.75l2.91,9.5,3.49-9.5h2.26L99,45.26l2.92-9.51h2.29l-4.06,11.69h-2.2l-3.56-9.7-3.59,9.7h-2.2l-4-11.69Z" transform="translate(0 0)"/><path class="cls-2" d="M112.21,35.75h11.22v1.43h-9.18v3.55h8.48v1.35h-8.48v4h9.33v1.39H112.21Z" transform="translate(0 0)"/><path class="cls-2" d="M131.27,35.75h2.09v10.3h7.76v1.39h-9.85Z" transform="translate(0 0)"/><path class="cls-2" d="M149.21,35.75h2.1v10.3h7.75v1.39h-9.85Z" transform="translate(0 0)"/></svg>