<svg id="Layer_1" data-name="Layer 1" xmlns="http://www.w3.org/2000/svg" viewBox="0 0 424.39 125.61"><defs><style>.cls-1{fill:#ce0e2d;}.cls-2{fill:#8b8d8f;}.cls-3{fill:none;stroke:#ce0e2d;stroke-width:2.91px;stroke-dasharray:5.82 5.82;}.cls-4{fill:#fff;}</style></defs><title>logo-gnc</title><path class="cls-1" d="M320,343l-1.24-19.74L290.08,325l.38,6.13,15.93-1,.17,2.61c.21,3.48-2.39,5.31-6,5.53l-17.95,1.12c-5.51.36-5.51-3.57-5.66-5.94l-.62-8.77c-.14-2.23-.92-5.81,3.94-7.27a11.47,11.47,0,0,1,1.77-.28l36.33-2.29-.39-6.27-43.63,2.75c-10.29.65-15.4,9.36-14.81,18.62.56,9,5,16.51,16.49,15.78Zm123.54-7.78-.41-6.51-33.53,2.13c-5.23.23-4.88-3-5-5.36l-.61-8.77c-.14-2.25-.86-5.87,3.52-7.27a6.47,6.47,0,0,1,1.27-.23l33-2.08-.39-6.28-40.91,2.58c-9.11.57-13.57,9.25-13,18.52.57,9,4.53,16.52,14.73,15.88Zm-101.25,6.38-1.58-25.12,24.77,23.66,16.18-1-2.16-34.38-13.36.85,1.64,26-26.13-24.46-15.1.95,2.17,34.38Z" transform="translate(-248.69 -292.23)"/><path class="cls-2" d="M262.1,407.66c-.09-1.72.09-3.36,0-5.44-.28-5.25-1-10.84-1.32-16.18-.34-6.43-.48-12.5-.81-18.66-.11-2-.77-4.22-2.76-4-1.71.18-3.54,0-5.26.1-1.9.1-3-.94-3-2.39a20.72,20.72,0,0,1-.18-3.34c.1-1.55.78-2.41,2-2.47,3.35-.09,5.51-.57,8.41-.63,3.35-.09,6.77-.72,10.14-.54a52.94,52.94,0,0,0,7.6-.41c1.35-.16,1.87,1.08,2,2.07.28,2-.31,2.74-.41,4.38,0,1.18-1.08,1.79-2.26,1.85a53.57,53.57,0,0,0-5.52.29,2,2,0,0,0-2,2.11c.19,3.53.72,6.58.46,10.14-.33,4,1.2,10.64,1.16,16.64-.07,3.91.69,7.95.62,11.68-.12,4.54.82,8.49.67,12.58a2.38,2.38,0,0,1-2.23,2.39,44.11,44.11,0,0,1-4.82-.11,2,2,0,0,1-1.73-1.9C262.73,414.35,262.16,408.75,262.1,407.66Zm1.8,6.44a1.45,1.45,0,0,0,1.39-1.07c.15-.55-.33-1.16-.67-.78-.78.86-1.24.61-1.2,1.43C263.44,414,263.44,414.13,263.9,414.1Z" transform="translate(-248.69 -292.23)"/><path class="cls-2" d="M288.33,397.46c-.15-1.17,0-2.27-.17-4.89-.11-2.09-.6-6.14-.71-11.68-.05-4.26-1-8.39-.76-12.39.05-.82-.47-5.42-.49-5.88-.13-2.44,0-4.72-.08-6.62a2.82,2.82,0,0,1,2.65-3,18.66,18.66,0,0,1,3.81-.11c1.91,0,2.77.85,2.86,2.57.11,3.72.4,7.43.6,11.14a27,27,0,0,1,0,4.08c-.08,3.54,1.07,11.56,1.07,18.37a85,85,0,0,0,.9,13.3,9.18,9.18,0,0,1,0,2.72c-.15,2.27.53,4.87.42,7.78-.07,2.09-.74,3.13-3,3.25-1,.05-2.09-.16-3.08,0-1.8.28-2.85-.66-3.16-2.92C288.71,409.6,289.09,403.23,288.33,397.46Zm6.82,7c.63,0,.8-.32.77-.86a.87.87,0,0,0-1.05-.94.81.81,0,0,0-.77.86A.91.91,0,0,0,295.15,404.45Z" transform="translate(-248.69 -292.23)"/><path class="cls-2" d="M306.89,388a88.93,88.93,0,0,1-.28-12,31.08,31.08,0,0,0-.79-4.59c-.29-5.52-.06-9.62,1-12.67a19.27,19.27,0,0,1,1.5-2.53c2-3.29,7.06-5.55,11-5.76,7.87-.42,12.74,5.76,14.15,10a24,24,0,0,1,1.27,8.46,2.22,2.22,0,0,1-2.23,2.48c-1.26.16-2.41.86-3.67.92-1.9.11-2.69-.94-2.75-2.21a31.2,31.2,0,0,0-.58-5.69c-1-4-3.36-5.18-5.54-5.06-7,.37-4.93,9.53-4.56,16.49.11,2.09.4,4.07.33,6.16-.2,6.46,1.05,12.83,1.16,18.37,0,4.26,2.63,6.76,5.71,6.59a5.6,5.6,0,0,0,5.12-6.08c-.12-2.27,0-4.63-.1-6.9-.09-1.81.68-2.57,1.77-2.63.72,0,6.48-1.07,6.64,1.91l.23,4.44a25.53,25.53,0,0,1-.49,7.74c-1.42,7.43-6.66,9.61-12.72,9.94a15.26,15.26,0,0,1-7.63-1.68c-1.67-.82-3.31-.82-4.53-3.3s-2.72-4.94-3.18-8.55C306.9,396.65,307.35,393.27,306.89,388Zm19.41,21.84c-.63,0-2.35.22-2.32.76s.23.81.68.78c.81,0,2.16-.29,2.12-1.11C326.76,409.93,326.76,409.84,326.3,409.86Z" transform="translate(-248.69 -292.23)"/><path class="cls-2" d="M341.38,389.72c-.49-11-1.31-14.45-1.27-18.72,0-3.27-.61-11.4-.63-11.86-.05-.81-.05-5.9-.09-6.71-.05-1,.42-2.38,3.13-2.53.82,0,1.92.17,2.73.13,2.9-.16,3.5.81,3.57,2.17.09,1.63-.34,2.1-.29,3.1.12,2.17.73,3.5.85,5.76.27,5,.19,6.8.64,11.86,0,.82.25,1.35,1.07,1.31,1-.06,1.63-1.63,2-2.29l4.2-9.84c1.45-3.35,2.43-7.12,4.12-11.12a3.08,3.08,0,0,1,3.06-2.25c.36,0,3.09.11,3.73.07,1.08-.05,2.27.06,2.34,1.42a6.09,6.09,0,0,1-.48,2.93c-1.36,3.44-3,6.43-4.27,10-1.19,3.33-2.75,6.41-4,9.56-.81,1.95-2,4.56-.39,8,.72,1.51,1.1,3.57,2.48,5.68s1.87,4.44,2.79,6.29c2.35,4.87,4.39,9.12,6.56,14.18.84,1.95,1.25,4.65-1.92,4.82-1.08.06-3,.8-4.88.35-2.21-.61-2.52-4.76-3.24-6.27S361,402.93,360,401c-1.72-3.27-3-7-4.56-10.56a2,2,0,0,0-1.71-1.36c-1.9.1-2.87,4-2.78,5.59a51.11,51.11,0,0,1,.34,6.43,44.48,44.48,0,0,0-.1,5l.23,4.16c.09,1.72-.95,2.77-2.94,2.88-.9.05-1.79.37-2.7.42a2.85,2.85,0,0,1-3.25-3C342.61,404.27,341.71,397.6,341.38,389.72Zm.65-25.27a.66.66,0,0,0,.69-.76c0-.27-.13-.63-.58-.61a.57.57,0,0,0-.6.67C341.56,364.21,341.76,364.47,342,364.45Z" transform="translate(-248.69 -292.23)"/><path class="cls-2" d="M378.84,404.43c-.2-3.72-.21-7.35-.39-10.78-.86-16-.48-17.5-.51-17.95-.14-2.72-.65-5.41-.84-8.85,0-.64-.59-6-.62-6.69-.08-1.45-.07-3-.18-5-.07-1.27-.23-2.53-.29-3.71a2.88,2.88,0,0,1,2.64-3.23c1.54-.08,4.06-.58,5.23-.64.82,0,3.64.08,4.09.06,4-.22,7.14-.66,11.14-.6,1.81,0,2.39.69,2.59,2.59a25,25,0,0,1,.53,3.14c0,1-.23,2.56-1.67,2.73-6.32.79-8,.42-11.84,1-3.25.45-3.31,2.72-3.18,5.07.08,1.45.44,3.07.5,4.33.11,2.09.32,4.16.34,6.25,0,2.45.68,2.69,5.39,2.44.91-.05,3,0,3.81,0s1.53-.26,2.26-.3c2.8-.15,2.5,2.77,2.56,3.86.16,2.9.61,4.6-2.11,4.74-1.08.06-2.54,0-3.71.11a34.08,34.08,0,0,1-5.34.28c-1.18,0-1.78.64-1.73,1.64.12,2.17-.13,4.27.08,6.62.42,4.52.54,6.6.62,8.23a2.63,2.63,0,0,0,2.77,2.48c1.8-.18,3.54,0,5.34-.28a45.57,45.57,0,0,1,4.89-.26c1.81-.1,3.64.26,3.76,2.43.07,1.27-.41,2.65-.33,4.1a2,2,0,0,1-2,2.2c-2.7.32-5.44,0-8,.33-3.51.46-7.15.47-10.68.66-2.35.13-4.75-.65-4.88-3C379.05,406.59,378.93,406.15,378.84,404.43Zm4.73,3.56c-.63,0-.87.68-1.21,1.15s0,.72.49.7a1.21,1.21,0,0,0,1.2-1.42C384,408.05,384,408,383.57,408Z" transform="translate(-248.69 -292.23)"/><path class="cls-2" d="M418.27,400c-.14-2.63-.17-4.8-.32-7.61-.06-1.27.6-2.48.52-3.93,0-.63-.68-2.5-.73-3.41-.21-4.07-.72-8.4-.9-11.75-.09-1.81.31-2.74.23-4.19-.34-6.43-.73-8.68-.8-9.85s.06-4.09-2.2-4c-6.07.32-8,.7-8.08-1.57-.06-1.26-.49-2.51-.56-3.78-.2-3.8,1.37-3.16,8.89-3.56,1.08-.06,8.5-.55,9.77-.61,2.8-.15,1.84.44,4.46.3,1.54-.08,1.88-.46,4.78-.62,1.63-.08,2.12.62,2.3,3.88.24,4.61-1.22,4.51-9.18,4.94-1.9.1-1.28,5-1.14,7.59.07,1.27.22,2.44.79,13,.09,1.81-.32,2.65-.21,4.55.06,1.18.65,2.14.85,4.13.75,7.13.87,14.57,1.16,21.73.15,2.71-.52,3.84-2.24,3.93-1.27.07-1.89.28-3.7.38-2.08.11-2.78-1-2.87-2.75C419.06,406.27,418.34,401.23,418.27,400Zm7-15.26c-.45,0-.86.95-.85,1.13,0,.46.13.72.5.7.72,0,.77-.76.73-1.49C425.63,384.77,425.62,384.68,425.26,384.7Z" transform="translate(-248.69 -292.23)"/><path class="cls-2" d="M462.26,397.61c-.14-2.62-.17-4.8-.32-7.61-.06-1.26.6-2.48.52-3.93,0-.63-.68-2.5-.73-3.41-.21-4.07-.72-8.4-.9-11.75-.09-1.81.31-2.74.23-4.19-.34-6.43-.73-8.68-.8-9.85s.06-4.09-2.2-4c-6.07.32-8,.7-8.08-1.57-.06-1.26-.49-2.51-.56-3.78-.2-3.8,1.37-3.16,8.89-3.56l9.77-.61c2.8-.15,1.84.44,4.46.3,1.54-.08,1.88-.46,4.78-.62,1.63-.08,2.12.62,2.29,3.88.25,4.61-1.21,4.51-9.17,4.94-1.9.1-1.28,5-1.14,7.59.07,1.27.22,2.44.79,13,.09,1.81-.32,2.65-.21,4.55.06,1.18.65,2.15.85,4.13.75,7.13.87,14.57,1.16,21.73.15,2.71-.52,3.84-2.24,3.93-1.27.07-1.89.28-3.7.38-2.08.11-2.78-1-2.87-2.75C463.05,403.92,462.33,398.88,462.26,397.61Zm7-15.26c-.45,0-.86.95-.85,1.13,0,.46.13.72.5.7.72,0,.77-.76.73-1.49C469.62,382.42,469.61,382.33,469.25,382.35Z" transform="translate(-248.69 -292.23)"/><path class="cls-2" d="M485.29,386.94c-.07-1.27,0-2.18-.08-3.26s-.59-2.42-.72-4.87-.06-8-.27-11.87c-.07-1.27-.23-2.63-.39-3.89-.54-5-.65-8.86,1.44-13.87,2.42-5.67,6.12-7.77,11.37-8.05,2-.11,7.83.49,8.88,3.15a3.21,3.21,0,0,0,2,2.16c2.15,1.16,2.3,2.24,3.28,5.19a32.27,32.27,0,0,1,1.78,9.61c.18,3.35.15,4.53.3,7.25.2,3.71.75,10.58,1,15.74.3,5.52.57,12.32-3.25,17.33-2.29,3-7.85,4.23-10.57,4.38-7.24.39-12.29-4.16-13.8-10.34A45.29,45.29,0,0,1,485.29,386.94Zm2.7,9.84a.51.51,0,0,0,.43-.57.78.78,0,0,0-.77-.68c-.27,0-.26.19-.24.47C487.44,396.54,487.54,396.8,488,396.78Zm13.83.62c1.45-.07,3.38-3.08,3.48-4.63a44,44,0,0,0-.19-6.89c-.16-1.26.52-2.3.46-3.38s-.66-2.15-.82-3.5c-.19-1.8-1.08-11.65-1.19-13.64-.12-2.27.09-5.18,0-7.54-.17-3.16-1.41-7.82-5.85-7.58-2.8.15-4.4,2.5-4.45,5.05-.07,5.45,1.1,12.1.8,16.66-.22,2.73.22,5.89.43,9.78.05,1,.38,2.07.44,3.06.14,2.63-.49,4.57.15,8C495.67,396,498.29,397.59,501.82,397.4Z" transform="translate(-248.69 -292.23)"/><path class="cls-2" d="M533.47,386.54c-.06-1-.19-1.89-.24-2.8-.09-1.72.09-3.36,0-4.9,0-.36-.46-5.15-.67-9-.07-1.45-.06-2.9-.05-4.45,0-3.54-.68-7.49-.71-11.58,0-3.27-.06-6.26-.23-9.34-.13-2.44.6-4.11,4.74-4.7,3.25-.44,6.8-.18,10.32-.55a20.26,20.26,0,0,1,5.85.78A13.2,13.2,0,0,1,560.8,351c.17,3.08.86,5.95.48,9-.39,2.83-.79,5.48-2.29,8-.67,1.21-2,2.56-2,3.64s1.26,1.39,2.63,3.4c1.77,2.54,2.59,7.58,2.74,10.48.19,3.53.41,5.88.58,9.13l.15,2.72c0,1.09,1.29,2.2.82,3.5s-4.38,1.23-5.56,1.29c-3.89.21-4.12-2.41-4.25-4.76-.75-14-1-21-8-20.64-2.26.12-3.62.29-3.51,2.28.23,4.25-.19,8.27.39,12.41a75.88,75.88,0,0,1,.72,8.41c.14,2.53-1.46,3.16-5.17,3.36-2.09.11-4-.6-4.31-2.49C533.61,396.07,533.9,391.24,533.47,386.54Zm.43-19.17c.63,0,1.17-.06,1.12-1,0-.45-.58-.79-1.22-.75s-.52.39-.49.84C533.35,367.4,533.35,367.4,533.9,367.37Zm12,2.17a6.44,6.44,0,0,0,2.85-1.15c3.84-2.75,3.27-5.08,3.41-9.26,0-.36.35-1.83.32-2.47-.16-2.89-.87-9.39-5.84-9.13-4.53.25-5.51.66-5.52,3.75,0,2.45-.29,4.91.21,7.43.51,2.7.29,5.43.62,8.14C542.14,368.74,543.1,369.69,545.9,369.54Z" transform="translate(-248.69 -292.23)"/><path class="cls-2" d="M568.67,384.57c0-1,.26-1.92.21-2.91-.07-1.27-.48-2.25-.86-9.4-.42-7.69-.22-9.06-.28-10.24-.17-3.26-.62-6.5-.79-9.76-.46-8.6,3.66-14.72,10.27-15.07,2.17-.12,2.86-.88,5-1a11.19,11.19,0,0,1,7.64,1.95c4.26,3.41,6.21,7.48,6.2,12.38,0,5.36,1,10.66.94,15.93-.08,7,1.09,12,1,20.82a16.92,16.92,0,0,1-4.17,10.39c-2.41,2.49-6.61,3.62-10,3.8-6.07.33-13.44-3.37-14.54-10.39C569,388.64,568.74,385.84,568.67,384.57Zm8.78-.55c.25,4.7,1.13,9.19,6.19,8.92,3.72-.19,5.18-3.45,5-6.62-.23-4.34-.82-8.58-1.06-12.92a6.9,6.9,0,0,1,.15-2.37c.77-2.49.06-3.91,0-5.9-.39-7.15-.55-11.95-.61-13.13-.2-3.62-1.78-7.8-6-7.57-3.8.2-5.59,4-5.4,7.55.22,4.25.55,8.59.78,13a57.55,57.55,0,0,1,.62,6.41c.26,4.89-.51,5.84-.44,7C576.64,380.79,577.34,382,577.45,384Zm12.25-10.19a1.11,1.11,0,0,0,.68-.95.92.92,0,0,0-.87-.95c-.45-.06-.81.05-.76.95S589.17,374,589.7,373.83Z" transform="translate(-248.69 -292.23)"/><path class="cls-2" d="M603.16,379.37a14.27,14.27,0,0,0,.44-2c-.08-1.44-.59-2.51-.75-3.77a53.64,53.64,0,0,1-.47-5.51c-.12-2.26-.24-4.44-.33-6.07s.17-3.73.11-4.81a74.91,74.91,0,0,1-.31-7.52c.94-6.13,2-11.19,8.25-13.7a13.14,13.14,0,0,1,4.11-1.21c12.4-.67,16,7.76,16.5,16.45.14,2.63.29,5.53-3.06,5.7a7.52,7.52,0,0,1-3.55-.17A2.56,2.56,0,0,1,622,354.4c-.14-.9-.63-1.69-.67-2.41-.19-3.44-.53-8.23-5.24-8-6.7.36-4.48,11.22-4.18,16.83.08,1.63.35,3.25.43,4.79s0,2.55,0,4c.3,5.53.53,13.23,1,16.47a5.29,5.29,0,0,0,5.5,4.34c2.9-.15,4.4-2.69,4.26-5.31-.11-1.9-.37-3.52-.46-5.15-.21-3.89.16-5.46,4-5.67,1.91-.1,4.43-.32,5,1.92a31.41,31.41,0,0,1,.58,5.87c.33,6.06-1.3,14.68-8.64,16.53a26,26,0,0,1-6.12,1.14,18,18,0,0,1-7.65-2.13,11.68,11.68,0,0,1-5.6-8.06c-.62-3.05-1.14-6-1.19-7A12.77,12.77,0,0,1,603.16,379.37Zm4.62-12.14c.45,0,.62-.3.59-.84s-.87-.95-1.5-.92c-.46,0-.45.11-.43.47A1.21,1.21,0,0,0,607.78,367.23Z" transform="translate(-248.69 -292.23)"/><path class="cls-2" d="M639,388.27c-.07-1.18.33-2.2.22-4.28s-1-8-1.13-11c-.08-1.45-.11-3.8-.2-5.34a44.17,44.17,0,0,0,.4-4.47c-.1-1.9-.72-3.23-1-5.58-.44-3.06.13-6-.64-10.31-.4-2.34-.34-8.06-.44-9.78a2.8,2.8,0,0,1,2-3.2,16.64,16.64,0,0,1,3.7-.37c1.54-.09,3,.74,3.11,2.1a16.6,16.6,0,0,1,.36,3.25,16.58,16.58,0,0,0,.25,4.8,60.87,60.87,0,0,1,.7,7.95,24.28,24.28,0,0,0,.27,5.07c.24,1.07.64,1.69,1.27,1.65.81,0,1.48-1.26,1.71-2,1.41-4.25,1.79-5.46,2.22-5.93.26-.29.61-.49.78-.68.43-.48.1-1.55,1-3.5.24-.56,1.23-2.43,2.1-4.84.48-1.2,2.08-5.19,2.91-6.6A4.25,4.25,0,0,1,661,333c1.51-.54,3.35-.09,4.89-.17a1.53,1.53,0,0,1,1.72,1.63c.09,1.54-1.13,4.33-1.61,5.44l-6.33,14.05c-.41.83-1.32,4.33-1.87,5.81-1.28,3.25.67,7.41,2.09,10.24,2.23,4.42,4.33,8,5.5,11.24,1.5,4.27,3.06,6.37,3.89,8.32.94,2.22,1.47,3.56,1.33,4.47-.22,2.55-3.52,2.09-6.23,2.24-3,.16-3.66-2.17-4.6-4.57-.53-1.42-1.42-2.73-2-4.25-1.58-4.09-3.66-7.34-5.17-11.89-.33-1.16-.94-2.4-1.94-2.34-1.45.07-2.93,2.88-3,4.15-.08,1.91-.06,3.91,0,5.45.06,1,.52,4.6.68,7.59a29.59,29.59,0,0,1,.17,4.89c-.31,2.65-4.41,2.42-5.77,2.49s-3.2-.56-3.35-3.27C639.3,393.24,639.09,391,639,388.27Zm4.43-.24c.36,0,.54-.12.52-.48a.48.48,0,0,0-.57-.52.44.44,0,0,0-.43.48C642.92,388,643.11,388,643.38,388Z" transform="translate(-248.69 -292.23)"/><path class="cls-3" d="M317,389.1" transform="translate(-248.69 -292.23)"/><path class="cls-4" d="M567.06,294.15a5.41,5.41,0,0,1,.63.8c-.06,0-.62-.15-.62-.15a2,2,0,0,0-.62-.73S566.85,293.92,567.06,294.15Z" transform="translate(-248.69 -292.23)"/><path class="cls-4" d="M566.14,294.05a2.38,2.38,0,0,1,.67.77,17.12,17.12,0,0,0-1.87.19,7.27,7.27,0,0,1-1-.65S565.64,294.1,566.14,294.05Z" transform="translate(-248.69 -292.23)"/><path class="cls-4" d="M564.63,295.1a11.33,11.33,0,0,0-1.45.4,5.35,5.35,0,0,1-1.16.23,3.06,3.06,0,0,1,.41-1.37c.08,0,.72-.16.72-.16S564.63,295.1,564.63,295.1Z" transform="translate(-248.69 -292.23)"/><path class="cls-4" d="M562.14,294.41a4.45,4.45,0,0,0-.38,1.37l-1.3.34v-.4l.88-1.08S561.81,294.49,562.14,294.41Z" transform="translate(-248.69 -292.23)"/><path class="cls-4" d="M549,298.63s0,0,0,0l-.11,1a.14.14,0,0,1-.06.07l-.31.11s-.05,0-.05,0l.12-1s0-.06.06-.06Z" transform="translate(-248.69 -292.23)"/><path class="cls-4" d="M548,299s.05,0,.05,0l-.12,1s0,0-.06.07l-.3.1s-.05,0-.05,0l.12-1a.09.09,0,0,1,.06-.07Z" transform="translate(-248.69 -292.23)"/><path class="cls-4" d="M547,299.44s.05,0,0,0l-.11,1a.09.09,0,0,1-.06.07l-.3.11s-.05,0-.05,0l.11-1a.14.14,0,0,1,.06-.07Z" transform="translate(-248.69 -292.23)"/><path class="cls-4" d="M546,299.85a0,0,0,0,1,.05,0l-.12,1a.08.08,0,0,1-.05.07l-.31.11a0,0,0,0,1-.05,0l.12-1s0-.05.06-.06Z" transform="translate(-248.69 -292.23)"/><path class="cls-4" d="M545.05,300.26s.05,0,.05,0l-.12,1a.09.09,0,0,1-.06.07l-.3.11a0,0,0,0,1,0,0l.12-1s0-.05.06-.07Z" transform="translate(-248.69 -292.23)"/><path class="cls-4" d="M544.05,300.66s.05,0,.05,0l-.11,1a.12.12,0,0,1-.06.06l-.31.12s0,0,0,0l.12-1a.11.11,0,0,1,.06-.07Z" transform="translate(-248.69 -292.23)"/><path class="cls-4" d="M543.06,301.07a0,0,0,0,1,.05,0l-.12,1a.09.09,0,0,1-.06.07l-.3.11s0,0,0,0l.12-1s0-.05.06-.06Z" transform="translate(-248.69 -292.23)"/><path class="cls-4" d="M542.07,301.48s0,0,0,0l-.11,1a.09.09,0,0,1-.06.07l-.3.11s0,0,0,0l.11-1s0-.06.06-.06Z" transform="translate(-248.69 -292.23)"/><path class="cls-4" d="M541.07,301.89s0,0,0,0l-.11,1s0,.05-.06.07l-.31.11a0,0,0,0,1,0,0l.12-1a.06.06,0,0,1,.06-.06Z" transform="translate(-248.69 -292.23)"/><path class="cls-4" d="M535.46,304.7s0,0,0,0l0,1a.08.08,0,0,1-.05.07l-.29.14s0,0,0,0l0-1a.08.08,0,0,1,0-.07Z" transform="translate(-248.69 -292.23)"/><path class="cls-4" d="M534.6,305.05s0,0,0,0l0,1a.08.08,0,0,1,0,.07l-.3.14a0,0,0,0,1,0,0l0-1a.09.09,0,0,1,.06-.07Z" transform="translate(-248.69 -292.23)"/><path class="cls-4" d="M532.89,305.86s.05,0,.05,0l0,1a.09.09,0,0,1,0,.07l-.3.14s0,0,0,0l0-1s0-.06.06-.08Z" transform="translate(-248.69 -292.23)"/><path class="cls-4" d="M531.11,306.58s0,0,0,0l0,1a.1.1,0,0,1,0,.08l-.29.13s0,0,0,0l0-1s0-.06.06-.07Z" transform="translate(-248.69 -292.23)"/><path class="cls-4" d="M530.14,307a0,0,0,0,1,.05,0l0,1a.1.1,0,0,1-.06.07l-.29.14s0,0,0,0l0-1a.08.08,0,0,1,.05-.07Z" transform="translate(-248.69 -292.23)"/><path class="cls-4" d="M529.17,307.44s.05,0,.05,0l0,1s0,.06-.06.07l-.29.14s-.05,0-.05,0l0-1a.08.08,0,0,1,0-.07Z" transform="translate(-248.69 -292.23)"/><path class="cls-4" d="M528.16,307.78s.06,0,.05,0l0,1a.09.09,0,0,1-.06.07l-.29.14s-.05,0-.05,0l0-1a.08.08,0,0,1,0-.07Z" transform="translate(-248.69 -292.23)"/><path class="cls-4" d="M527.2,308.24s0,0,0,0l0,1a.1.1,0,0,1-.05.08l-.29.13s0,0,0,0l0-1a.1.1,0,0,1,0-.07Z" transform="translate(-248.69 -292.23)"/><path class="cls-4" d="M526.24,308.7s0,0,0,0l0,1a.08.08,0,0,1,0,.07l-.29.14s0,0,0,0l0-1a.08.08,0,0,1,.05-.07Z" transform="translate(-248.69 -292.23)"/><path class="cls-4" d="M525.28,309.15s.05,0,.05,0l0,1a.09.09,0,0,1,0,.07l-.29.14s-.05,0-.05,0l0-1a.09.09,0,0,1,.06-.07Z" transform="translate(-248.69 -292.23)"/><path class="cls-4" d="M524.32,309.61s0,0,0,0l0,1a.1.1,0,0,1-.05.08l-.29.13s-.06,0-.06,0l0-1s0-.05,0-.07Z" transform="translate(-248.69 -292.23)"/><path class="cls-4" d="M523.36,310.07s0,0,0,0l0,1a.09.09,0,0,1,0,.07l-.3.14s0,0,0,0l0-1a.09.09,0,0,1,0-.07Z" transform="translate(-248.69 -292.23)"/><path class="cls-4" d="M522.4,310.52s0,0,0,0l0,1a.12.12,0,0,1,0,.07l-.3.14s-.05,0-.05,0l0-1a.08.08,0,0,1,.05-.07Z" transform="translate(-248.69 -292.23)"/><path class="cls-4" d="M521.4,311s.05,0,.05,0l0,1a.11.11,0,0,1-.06.07l-.29.14s-.05,0-.05,0l0-1a.09.09,0,0,1,.06-.07Z" transform="translate(-248.69 -292.23)"/><path class="cls-4" d="M520.41,311.37s.05,0,.05,0l0,1a.08.08,0,0,1,0,.07l-.3.14s-.05,0-.05,0l0-1a.12.12,0,0,1,.05-.07Z" transform="translate(-248.69 -292.23)"/><path class="cls-4" d="M499.24,320.6s0,0,0,0l-.09,1a.08.08,0,0,1-.05.07l-.25.13s0,0,0,0l.09-1a.08.08,0,0,1,0-.07Z" transform="translate(-248.69 -292.23)"/><path class="cls-4" d="M498.34,321s0,0,0,0l-.08,1a.13.13,0,0,1-.05.07l-.26.13s0,0,0,0l.08-1a.08.08,0,0,1,0-.07Z" transform="translate(-248.69 -292.23)"/><path class="cls-4" d="M497.44,321.38s.05,0,.05,0l-.09,1a.08.08,0,0,1,0,.07l-.25.13s-.05,0,0,0l.08-1a.13.13,0,0,1,.05-.07Z" transform="translate(-248.69 -292.23)"/><path class="cls-4" d="M496.55,321.77s0,0,0,0l-.09,1a.13.13,0,0,1,0,.07l-.26.12s0,0,0,0l.09-1a.13.13,0,0,1,0-.07Z" transform="translate(-248.69 -292.23)"/><path class="cls-4" d="M495.65,322.16s0,0,0,0l-.08,1a.12.12,0,0,1-.05.07l-.25.12s-.05,0-.05,0l.09-1a.12.12,0,0,1,0-.07Z" transform="translate(-248.69 -292.23)"/><path class="cls-4" d="M494.76,322.56s0,0,0,0l-.09,1a.08.08,0,0,1,0,.07l-.25.12s0,0,0,0l.09-1a.13.13,0,0,1,0-.07Z" transform="translate(-248.69 -292.23)"/><path class="cls-4" d="M493.86,323s0,0,0,0l-.09,1a.08.08,0,0,1,0,.07l-.26.12s0,0,0,0l.09-1a.07.07,0,0,1,.05-.06Z" transform="translate(-248.69 -292.23)"/><path class="cls-4" d="M493,323.32s0,0,0,0l-.09,1a.08.08,0,0,1-.05.07l-.25.13s0,0,0,0l.08-1a.11.11,0,0,1,.06-.07Z" transform="translate(-248.69 -292.23)"/><path class="cls-4" d="M492.15,323.78s0,0,0,0l-.09,1a.08.08,0,0,1,0,.07l-.26.12s0,0,0,0l.09-1a.09.09,0,0,1,0-.07Z" transform="translate(-248.69 -292.23)"/><path class="cls-4" d="M491.3,324.23s.05,0,0,0l-.08,1-.05.07-.25.12s0,0,0,0l.08-1a.18.18,0,0,1,.05-.07Z" transform="translate(-248.69 -292.23)"/><path class="cls-4" d="M487.82,325.71v1a.08.08,0,0,1,0,.07l-.24.15s0,0,0,0v-1a.07.07,0,0,1,0-.07l.24-.13S487.82,325.69,487.82,325.71Z" transform="translate(-248.69 -292.23)"/><path d="M572.71,317.17c-.83-.19-7-1.25-7-1.25a4.21,4.21,0,0,0-2.87-3.15,5.1,5.1,0,0,0-3.25.28l-.11-1,.16-.12h.79c.19-.17,0-.47,0-.47h-.38l0-.23,3-2.24-.42-1.11a24.87,24.87,0,0,0,4.39-4.14c3.2-3.62,3.07-5.87,2.74-7.07s-1.74-1.45-1.93-1.55c-1-1.71-3.57-2.69-5-2.84-5.72-.58-14.71,3-18,4.4s-27.76,12.22-27.76,12.22c-1.47.15-11,4.74-11,4.74-3.76.22-23.12,1.81-23.12,1.81-.34-.17-7.65-8-9.87-10.12s-2.89-2.32-4.48-1.85a28.84,28.84,0,0,0-4.15,1.83l4.81,11.17c-2.08.24-13.44.9-15.13,1.39s-4.79,1.79-4.79,1.79l8.46-.05.05.29,6.72,0a22.18,22.18,0,0,1-1.71,2.1c-.2.12-.27.71.68.54,2.4-.39,5.87-2.59,5.87-2.59l1.32,0,.88,2.08c-.78.76-.49,1-.39,1.15s1,0,1,0l2.42,5.67s-15.45,2-19.31,2.52a30.18,30.18,0,0,0-6.23,1.15c-1,.34-3.77,1.81-3.77,1.81l25.17-1.4c-.12.86,1.15,1.25,2.08,1.3s9.14.12,9.14.12c1.27.69,3.55.44,4.74.25a50,50,0,0,1,5.63-.2,67.33,67.33,0,0,0,16.62-2.05A3.21,3.21,0,0,0,509,334a1.28,1.28,0,0,0,1.6.42,1.45,1.45,0,0,0,.62-.91l.24.47c0,.14.18.31.23.3a1.47,1.47,0,0,0,.25-.23c0,.11.18.23.18.23l.37-.35c0,.26.49.65,1.18.64s1.09-.75,1.16-1.64a1.7,1.7,0,0,0-.46-1.37l.4-.39a1.16,1.16,0,0,0,2,0,2.1,2.1,0,0,0,.16-1.78l3.31-1.5c-.07,1.68.42,2,.73,2.1a1.18,1.18,0,0,0,.73-.05l-.29,1.16.2.29,1.9-1,.33-1.63.55-.38c.54,1.71,1.6,1.63,1.84,1.58a4.58,4.58,0,0,0,.64-.21l.81,1.61,1.7-1,.13-.32-.8-1.47a2.3,2.3,0,0,0,.8-3,1.32,1.32,0,0,0-1.47-.85l0-.24,2.69-1.27,1.23,1.2a3.54,3.54,0,0,1-.27.26.61.61,0,0,0,.06.91c.46.49,1.63.12,1.63.12l2.68,2.51-.25.4.25.48,1,0,.21.39c-.06,0-.06.21-.06.21l-.26,0,0,.06s-.11,0-.16.16.16.23.16.23l0,1.14a.88.88,0,0,0-.62-.31c-.73-.08-1.28.46-1.38,1.34s.23,2,1.27,2a1.23,1.23,0,0,0,1.22-1l.24.45c-.08.14.15.35.25.25a.53.53,0,0,1,.21-.13c0,.13.25.2.25.2l.35-.33a1.21,1.21,0,0,0,2.24-.41,2,2,0,0,0-.36-2l.39-.44a1.24,1.24,0,0,0,2.2-.26A2.48,2.48,0,0,0,543,329a1.17,1.17,0,0,0-1.54-.57,1.37,1.37,0,0,0-.79,1.1l-.09-.17h-.17l-.35-7.47a2.26,2.26,0,0,0,.6-1c1.06-.13,3.76-.53,3.76-.53l0,.24,1.69-.15c-.07.18-2.23,2.66-2.46,2.89s-.11.44-.06.67.36.5,1.32.31a22.14,22.14,0,0,0,3.72-1.88,3,3,0,0,0,2.41,3.28,27,27,0,0,0,4.12-1.62,1.94,1.94,0,0,0,1,.18,19,19,0,0,0,7.14-3,9.71,9.71,0,0,0,1.64-1.55l1.21-.11,0-.18a30.32,30.32,0,0,0,4,0c2.75-.69,3.63-1.27,3.68-1.55S573.54,317.37,572.71,317.17Zm-5.65-23a5.41,5.41,0,0,1,.63.8c-.06,0-.62-.15-.62-.15a2,2,0,0,0-.62-.73S566.85,293.92,567.06,294.15Zm-.92-.1a2.38,2.38,0,0,1,.67.77,17.12,17.12,0,0,0-1.87.19,7.27,7.27,0,0,1-1-.65S565.64,294.1,566.14,294.05Zm-3,.15c.08.08,1.48.9,1.48.9a11.33,11.33,0,0,0-1.45.4,5.35,5.35,0,0,1-1.16.23,3.06,3.06,0,0,1,.41-1.37C562.51,294.36,563.15,294.2,563.15,294.2Zm-2.69,1.52.88-1.08s.47-.15.8-.23a4.45,4.45,0,0,0-.38,1.37l-1.3.34Zm-72.64,31a.08.08,0,0,1,0,.07l-.24.15s0,0,0,0v-1a.07.07,0,0,1,0-.07l.24-.13s0,0,0,0Zm3.44-1.45-.05.07-.25.12s0,0,0,0l.08-1a.18.18,0,0,1,.05-.07l.25-.11s.05,0,0,0Zm.84-.46a.08.08,0,0,1,0,.07l-.26.12s0,0,0,0l.09-1a.09.09,0,0,1,0-.07l.25-.11s0,0,0,0Zm.85-.46a.08.08,0,0,1-.05.07l-.25.13s0,0,0,0l.08-1a.11.11,0,0,1,.06-.07l.25-.11s0,0,0,0Zm.86-.37a.08.08,0,0,1,0,.07l-.26.12s0,0,0,0l.09-1a.07.07,0,0,1,.05-.06l.25-.11s0,0,0,0Zm.9-.39a.08.08,0,0,1,0,.07l-.25.12s0,0,0,0l.09-1a.13.13,0,0,1,0-.07l.26-.1s0,0,0,0Zm.9-.39a.12.12,0,0,1-.05.07l-.25.12s-.05,0-.05,0l.09-1a.12.12,0,0,1,0-.07l.25-.11s0,0,0,0Zm.89-.39a.13.13,0,0,1,0,.07l-.26.12s0,0,0,0l.09-1a.13.13,0,0,1,0-.07l.26-.11s0,0,0,0Zm.9-.4a.08.08,0,0,1,0,.07l-.25.13s-.05,0,0,0l.08-1a.13.13,0,0,1,.05-.07l.25-.11s.05,0,.05,0Zm.9-.39a.13.13,0,0,1-.05.07l-.26.13s0,0,0,0l.08-1a.08.08,0,0,1,0-.07l.25-.11s0,0,0,0Zm.89-.39a.08.08,0,0,1-.05.07l-.25.13s0,0,0,0l.09-1a.08.08,0,0,1,0-.07l.26-.11s0,0,0,0Zm12.36,10.79c-.28,0-.33.13-.33.13s-.13-.47-.13-.47l.37,0,.59-.23Zm2.05-1.06,0-.09.19-.25.08.08Zm6.83-19a.08.08,0,0,1,0,.07l-.3.14s-.05,0-.05,0l0-1a.12.12,0,0,1,.05-.07l.3-.12s.05,0,.05,0Zm1-.42a.11.11,0,0,1-.06.07l-.29.14s-.05,0-.05,0l0-1a.09.09,0,0,1,.06-.07l.29-.12s.05,0,.05,0Zm1-.42a.12.12,0,0,1,0,.07l-.3.14s-.05,0-.05,0l0-1a.08.08,0,0,1,.05-.07l.3-.13s0,0,0,0Zm1-.46a.09.09,0,0,1,0,.07l-.3.14s0,0,0,0l0-1a.09.09,0,0,1,0-.07l.3-.12s0,0,0,0Zm1-.46a.1.1,0,0,1-.05.08l-.29.13s-.06,0-.06,0l0-1s0-.05,0-.07l.3-.12s0,0,0,0Zm1-.45a.09.09,0,0,1,0,.07l-.29.14s-.05,0-.05,0l0-1a.09.09,0,0,1,.06-.07l.29-.13s.05,0,.05,0Zm1-.46a.08.08,0,0,1,0,.07l-.29.14s0,0,0,0l0-1a.08.08,0,0,1,.05-.07l.29-.12s0,0,0,0Zm1-.46a.1.1,0,0,1-.05.08l-.29.13s0,0,0,0l0-1a.1.1,0,0,1,0-.07l.29-.12s0,0,0,0Zm1-.45a.09.09,0,0,1-.06.07l-.29.14s-.05,0-.05,0l0-1a.08.08,0,0,1,0-.07l.29-.13s.06,0,.05,0Zm1-.34s0,.06-.06.07l-.29.14s-.05,0-.05,0l0-1a.08.08,0,0,1,0-.07l.29-.13s.05,0,.05,0Zm1-.44a.1.1,0,0,1-.06.07l-.29.14s0,0,0,0l0-1a.08.08,0,0,1,.05-.07l.3-.13a0,0,0,0,1,.05,0Zm2.38-1.95s0-.06.06-.08l.29-.12s.05,0,.05,0l0,1a.09.09,0,0,1,0,.07l-.3.14s0,0,0,0Zm-1.41,1.52a.1.1,0,0,1,0,.08l-.29.13s0,0,0,0l0-1s0-.06.06-.07l.29-.12s0,0,0,0Zm1.24,16.58-1.17-1.07,1.41-.69s-.07.35,0,.44-.22.22-.22.3a.34.34,0,0,0,.46.31l.15-.26.27.05Zm2.75-19.26a.08.08,0,0,1,0-.07l.29-.13s0,0,0,0l0,1a.08.08,0,0,1-.05.07l-.29.14s0,0,0,0Zm-.87.34a.09.09,0,0,1,.06-.07l.29-.12s0,0,0,0l0,1a.08.08,0,0,1,0,.07l-.3.14a0,0,0,0,1,0,0ZM534,325.65l.64-.26c0,.31.59.36.59.36l1.07,2Zm1.84-.58c.1-.08,0-.34,0-.34.19-.08.9-.49.9-.49l.83,2.78,0,.1.23.69,0,.44a.38.38,0,0,0-.39-.27Zm1.89,7.28c-.28,0-.3.09-.3.09a1.8,1.8,0,0,0-.15-.43h.4l.43-.28h.12Zm2.14-1.15h-.11l.2-.24.06.07ZM541,302.89s0,.05-.06.07l-.31.11a0,0,0,0,1,0,0l.12-1a.06.06,0,0,1,.06-.06l.3-.1s0,0,0,0Zm1-.41a.09.09,0,0,1-.06.07l-.3.11s0,0,0,0l.11-1s0-.06.06-.06l.31-.1s0,0,0,0Zm1-.41a.09.09,0,0,1-.06.07l-.3.11s0,0,0,0l.12-1s0-.05.06-.06l.3-.1a0,0,0,0,1,.05,0Zm1-.4a.12.12,0,0,1-.06.06l-.31.12s0,0,0,0l.12-1a.11.11,0,0,1,.06-.07l.3-.1s.05,0,.05,0Zm1-.41a.09.09,0,0,1-.06.07l-.3.11a0,0,0,0,1,0,0l.12-1s0-.05.06-.07l.3-.09s.05,0,.05,0Zm1-.41a.08.08,0,0,1-.05.07l-.31.11a0,0,0,0,1-.05,0l.12-1s0-.05.06-.06l.3-.1a0,0,0,0,1,.05,0Zm1-.41a.09.09,0,0,1-.06.07l-.3.11s-.05,0-.05,0l.11-1a.14.14,0,0,1,.06-.07l.31-.1s.05,0,0,0Zm1-.4s0,0-.06.07l-.3.1s-.05,0-.05,0l.12-1a.09.09,0,0,1,.06-.07l.3-.09s.05,0,.05,0Zm1-.41a.14.14,0,0,1-.06.07l-.31.11s-.05,0-.05,0l.12-1s0-.06.06-.06l.31-.1s0,0,0,0ZM558.55,313a12.93,12.93,0,0,0-4.3,1s-2.25-.41-2.39-.39l5.31-2.49s.23,1,.76,1.17l.8.05.1.44A2.91,2.91,0,0,0,558.55,313Z" transform="translate(-248.69 -292.23)"/><path class="cls-4" d="M517.52,312.59l-.25.13a.08.08,0,0,0,0,.07v.15l.33,0v-.3S517.54,312.58,517.52,312.59Z" transform="translate(-248.69 -292.23)"/><path class="cls-4" d="M518.45,312.22l-.29.12a.08.08,0,0,0,0,.07l0,.47.4,0v-.62S518.48,312.2,518.45,312.22Z" transform="translate(-248.69 -292.23)"/><path class="cls-4" d="M519.44,312.8l0-1s0,0,0,0l-.3.13a.08.08,0,0,0,0,.07l0,.83.4,0Z" transform="translate(-248.69 -292.23)"/><path d="M264.59,404.68c-.1-1.72.09-3.36,0-5.44-.28-5.25-1-10.84-1.32-16.18-.34-6.43-.49-12.5-.82-18.66-.1-2-.77-4.22-2.75-4-1.72.18-3.54,0-5.26.1-1.9.1-3-.93-3-2.38a19.75,19.75,0,0,1-.18-3.35c.1-1.55.78-2.4,1.95-2.46,3.36-.09,5.51-.57,8.41-.63,3.36-.09,6.77-.73,10.14-.55a51.44,51.44,0,0,0,7.6-.4c1.36-.16,1.88,1.08,2,2.07.29,2-.31,2.74-.4,4.38,0,1.18-1.09,1.78-2.26,1.85a53.57,53.57,0,0,0-5.52.29,2,2,0,0,0-2,2.1c.19,3.53.72,6.59.45,10.14-.33,4,1.21,10.65,1.16,16.65-.06,3.9.7,7.95.63,11.67-.12,4.55.81,8.49.67,12.59a2.38,2.38,0,0,1-2.24,2.38,46.52,46.52,0,0,1-4.81-.1,2,2,0,0,1-1.74-1.91C265.22,411.37,264.64,405.77,264.59,404.68Zm1.79,6.44a1.47,1.47,0,0,0,1.4-1.07c.15-.55-.34-1.16-.68-.78-.77.86-1.24.61-1.19,1.42C265.92,411.05,265.93,411.15,266.38,411.12Z" transform="translate(-248.69 -292.23)"/><path d="M290.82,394.47c-.16-1.17,0-2.26-.17-4.89-.11-2.08-.6-6.14-.72-11.67,0-4.26-1-8.39-.75-12.4.05-.82-.47-5.42-.5-5.87-.13-2.44,0-4.72-.08-6.62a2.84,2.84,0,0,1,2.66-3,18,18,0,0,1,3.81-.11c1.9,0,2.77.85,2.86,2.57.1,3.72.39,7.42.59,11.13a26.42,26.42,0,0,1,0,4.09c-.08,3.54,1.07,11.56,1.07,18.37a86.63,86.63,0,0,0,.89,13.29,9.18,9.18,0,0,1,.06,2.72c-.15,2.28.53,4.88.41,7.79-.07,2.09-.74,3.13-3,3.25-1,0-2.1-.16-3.09,0-1.8.28-2.85-.67-3.15-2.92C291.19,406.62,291.58,400.24,290.82,394.47Zm6.82,7c.63,0,.8-.31.77-.85a.88.88,0,0,0-1.05-.95.81.81,0,0,0-.77.86A.9.9,0,0,0,297.64,401.46Z" transform="translate(-248.69 -292.23)"/><path d="M309.38,385a85.6,85.6,0,0,1-.28-12,32.56,32.56,0,0,0-.79-4.58c-.29-5.53-.06-9.62,1-12.67a17.66,17.66,0,0,1,1.5-2.53c2-3.29,7.05-5.55,11-5.76,7.87-.42,12.74,5.76,14.14,10a23.56,23.56,0,0,1,1.27,8.47,2.22,2.22,0,0,1-2.23,2.48c-1.26.16-2.4.85-3.67.92-1.9.1-2.68-1-2.75-2.21a29.53,29.53,0,0,0-.58-5.69c-1-4-3.36-5.18-5.53-5.06-7,.37-4.94,9.52-4.57,16.49.12,2.08.4,4.07.33,6.16-.2,6.45,1.05,12.83,1.17,18.36-.05,4.27,2.63,6.76,5.7,6.6a5.61,5.61,0,0,0,5.13-6.09c-.13-2.26,0-4.63-.1-6.89-.1-1.81.68-2.58,1.76-2.64.73,0,6.48-1.07,6.64,1.92l.24,4.43a25.94,25.94,0,0,1-.49,7.75c-1.42,7.43-6.66,9.61-12.73,9.94a15.23,15.23,0,0,1-7.62-1.69c-1.68-.81-3.31-.82-4.53-3.29s-2.72-4.94-3.18-8.55C309.38,393.67,309.84,390.28,309.38,385Zm19.41,21.84c-.64,0-2.35.22-2.32.76s.22.81.68.78c.81,0,2.16-.3,2.12-1.11C329.25,407,329.24,406.86,328.79,406.88Z" transform="translate(-248.69 -292.23)"/><path d="M343.87,386.74c-.5-11-1.32-14.45-1.27-18.72,0-3.27-.61-11.41-.64-11.86,0-.82,0-5.9-.08-6.71-.06-1,.41-2.39,3.13-2.53.81,0,1.92.17,2.73.12,2.9-.15,3.49.82,3.56,2.17.09,1.63-.34,2.11-.28,3.11.11,2.17.73,3.5.85,5.76.27,5,.18,6.8.63,11.86.05.81.26,1.35,1.07,1.3,1-.05,1.64-1.63,2-2.28l4.19-9.85c1.46-3.34,2.44-7.12,4.13-11.11a3.07,3.07,0,0,1,3.06-2.25c.36,0,3.09.11,3.72.07,1.09-.06,2.27.06,2.35,1.42a6.34,6.34,0,0,1-.48,2.93c-1.36,3.43-3,6.43-4.28,10-1.18,3.33-2.74,6.41-4,9.57-.8,2-2,4.55-.39,8,.72,1.5,1.1,3.57,2.49,5.67s1.87,4.44,2.78,6.3c2.35,4.87,4.39,9.12,6.57,14.17.83,2,1.25,4.66-1.92,4.83-1.09.06-3,.8-4.88.35-2.21-.61-2.53-4.77-3.24-6.27s-2.15-2.88-3.17-4.83c-1.71-3.26-3-7-4.55-10.56a2,2,0,0,0-1.71-1.36c-1.9.11-2.87,4-2.79,5.6a49.29,49.29,0,0,1,.34,6.43,45.55,45.55,0,0,0-.09,5l.22,4.17c.09,1.72-.94,2.77-2.93,2.88-.91.05-1.8.37-2.7.41-2.18.12-3.15-1.19-3.25-3C345.1,401.29,344.2,394.62,343.87,386.74Zm.65-25.27a.65.65,0,0,0,.68-.76c0-.28-.12-.63-.58-.61a.58.58,0,0,0-.6.67C344.05,361.22,344.24,361.48,344.52,361.47Z" transform="translate(-248.69 -292.23)"/><path d="M381.32,401.44c-.19-3.71-.21-7.34-.39-10.78-.85-16-.48-17.49-.5-18-.15-2.71-.66-5.41-.84-8.85,0-.63-.59-6-.63-6.68-.08-1.45-.07-3-.17-5-.07-1.27-.23-2.53-.29-3.71a2.88,2.88,0,0,1,2.64-3.23c1.54-.08,4.05-.58,5.23-.64.81,0,3.64.08,4.09.05,4-.21,7.13-.65,11.13-.59,1.82,0,2.4.69,2.59,2.58a24.86,24.86,0,0,1,.53,3.15c.06,1-.22,2.56-1.67,2.72-6.31.79-8,.43-11.84,1-3.24.45-3.3,2.72-3.18,5.07.08,1.45.44,3.06.51,4.33.11,2.08.31,4.16.33,6.25,0,2.45.69,2.68,5.4,2.43.9-.05,3,0,3.81,0s1.53-.26,2.25-.3c2.81-.15,2.51,2.77,2.57,3.86.15,2.89.61,4.59-2.11,4.74-1.09.06-2.54-.05-3.72.1a35.27,35.27,0,0,1-5.34.29c-1.18,0-1.78.64-1.72,1.64.11,2.17-.14,4.27.08,6.62.42,4.52.53,6.6.62,8.23a2.63,2.63,0,0,0,2.76,2.48c1.81-.19,3.54,0,5.34-.28a40.92,40.92,0,0,1,4.89-.26c1.81-.1,3.65.25,3.76,2.43.07,1.26-.4,2.65-.32,4.1a2,2,0,0,1-2,2.19c-2.71.33-5.45,0-8,.34-3.52.46-7.15.47-10.68.66-2.35.12-4.76-.66-4.88-3C381.53,403.61,381.42,403.16,381.32,401.44Zm4.73,3.56c-.63,0-.87.69-1.2,1.16s0,.72.49.7a1.22,1.22,0,0,0,1.19-1.43C386.51,405.07,386.51,405,386.05,405Z" transform="translate(-248.69 -292.23)"/><path d="M420.75,397c-.14-2.63-.16-4.8-.31-7.61-.07-1.27.59-2.48.52-3.93,0-.64-.68-2.51-.73-3.41-.22-4.08-.72-8.41-.9-11.76-.1-1.81.31-2.74.23-4.18-.34-6.43-.74-8.68-.8-9.86s.05-4.08-2.21-4c-6.06.32-7.95.69-8.07-1.57-.07-1.27-.5-2.52-.57-3.78-.2-3.8,1.38-3.16,8.89-3.56l9.77-.62c2.81-.15,1.84.45,4.47.31,1.54-.08,1.88-.46,4.78-.62,1.62-.09,2.12.61,2.29,3.87.25,4.62-1.21,4.52-9.18,4.94-1.9.1-1.27,5-1.13,7.6.06,1.26.22,2.44.78,13,.1,1.81-.31,2.65-.21,4.55.06,1.17.66,2.14.86,4.13.74,7.13.87,14.57,1.16,21.72.14,2.72-.52,3.84-2.24,3.94-1.27.06-1.9.28-3.71.37-2.08.11-2.77-1-2.86-2.75C421.55,403.29,420.82,398.24,420.75,397Zm7-15.26c-.46,0-.86.95-.85,1.13,0,.45.13.72.49.7.72,0,.78-.77.74-1.49C428.11,381.79,428.11,381.7,427.75,381.72Z" transform="translate(-248.69 -292.23)"/><path d="M464.74,394.63c-.14-2.63-.16-4.8-.31-7.61-.07-1.27.59-2.48.52-3.93,0-.64-.68-2.51-.73-3.41-.22-4.08-.72-8.41-.9-11.76-.1-1.81.31-2.74.23-4.18-.34-6.43-.74-8.68-.8-9.86s.05-4.08-2.21-4c-6.06.32-8,.69-8.07-1.57-.07-1.27-.5-2.52-.57-3.78-.2-3.8,1.38-3.16,8.89-3.56,1.09-.06,8.5-.55,9.77-.61,2.81-.15,1.84.44,4.47.3,1.54-.08,1.88-.46,4.78-.62,1.62-.08,2.12.62,2.29,3.87.25,4.62-1.21,4.52-9.18,4.94-1.9.1-1.27,5-1.13,7.6.06,1.27.22,2.44.78,13,.1,1.81-.31,2.65-.21,4.55.06,1.17.66,2.14.86,4.13.74,7.13.87,14.57,1.16,21.72.14,2.72-.52,3.84-2.24,3.94-1.27.06-1.9.28-3.71.37-2.08.12-2.77-1-2.87-2.75C465.54,400.94,464.81,395.9,464.74,394.63Zm7-15.26c-.46,0-.86.95-.85,1.13,0,.45.13.72.49.7.72,0,.78-.77.74-1.49C472.1,379.44,472.1,379.35,471.74,379.37Z" transform="translate(-248.69 -292.23)"/><path d="M487.77,384c-.06-1.27,0-2.18-.08-3.27s-.58-2.42-.71-4.86-.07-8-.27-11.88c-.07-1.26-.24-2.62-.39-3.88-.54-5-.66-8.86,1.43-13.88,2.42-5.66,6.12-7.77,11.38-8.05,2-.1,7.83.49,8.88,3.16a3.19,3.19,0,0,0,2,2.16c2.15,1.16,2.3,2.24,3.27,5.18a32.67,32.67,0,0,1,1.79,9.62c.18,3.35.15,4.53.29,7.25.2,3.71.75,10.58,1,15.74.29,5.52.56,12.31-3.25,17.33-2.29,3-7.86,4.23-10.57,4.38-7.25.38-12.3-4.16-13.81-10.34A46.2,46.2,0,0,1,487.77,384Zm2.71,9.84a.51.51,0,0,0,.42-.57.78.78,0,0,0-.76-.68c-.27,0-.26.19-.25.46C489.92,393.56,490,393.82,490.48,393.8Zm13.83.62c1.45-.08,3.38-3.08,3.47-4.63a44,44,0,0,0-.18-6.89c-.16-1.26.51-2.3.45-3.38s-.66-2.15-.82-3.5c-.19-1.81-1.08-11.65-1.18-13.65-.12-2.26.08-5.17,0-7.53-.17-3.17-1.42-7.82-5.85-7.58-2.81.15-4.41,2.5-4.45,5-.08,5.46,1.1,12.11.8,16.67-.22,2.73.22,5.88.43,9.78.05,1,.38,2.06.43,3.06.14,2.63-.48,4.57.16,8C498.15,393,500.78,394.61,504.31,394.42Z" transform="translate(-248.69 -292.23)"/><path d="M536,383.56c-.05-1-.19-1.89-.24-2.8-.09-1.72.1-3.36,0-4.9,0-.36-.45-5.15-.66-9-.08-1.45-.07-2.91-.06-4.45,0-3.54-.67-7.5-.71-11.58,0-3.27-.06-6.26-.22-9.34-.13-2.44.59-4.11,4.74-4.7,3.24-.45,6.8-.18,10.32-.55A20.3,20.3,0,0,1,555,337a13.19,13.19,0,0,1,8.31,11.08c.16,3.08.86,5.95.48,9-.4,2.84-.8,5.49-2.3,8-.66,1.22-2,2.56-2,3.65s1.25,1.38,2.63,3.4c1.77,2.54,2.58,7.58,2.74,10.47.19,3.53.4,5.88.58,9.14l.14,2.72c.06,1.08,1.3,2.2.82,3.49s-4.38,1.24-5.55,1.3c-3.9.21-4.13-2.41-4.25-4.77-.75-14-1-21-8-20.63-2.26.12-3.61.28-3.51,2.27.23,4.26-.19,8.28.4,12.42a78,78,0,0,1,.72,8.4c.13,2.54-1.47,3.17-5.18,3.37-2.08.11-4-.6-4.31-2.5C536.1,393.09,536.39,388.26,536,383.56Zm.43-19.17c.64,0,1.18-.07,1.13-1,0-.45-.59-.79-1.22-.75s-.52.39-.5.84C535.84,364.42,535.84,364.42,536.38,364.39Zm12,2.17a6.57,6.57,0,0,0,2.84-1.15c3.85-2.75,3.27-5.08,3.41-9.26,0-.36.36-1.84.32-2.47-.15-2.9-.86-9.39-5.84-9.13-4.53.24-5.5.66-5.52,3.74,0,2.45-.28,4.92.22,7.44.5,2.69.29,5.43.61,8.14C544.62,365.76,545.58,366.71,548.39,366.56Z" transform="translate(-248.69 -292.23)"/><path d="M571.16,381.59c-.06-1,.26-1.92.21-2.92-.07-1.26-.49-2.24-.87-9.39-.41-7.69-.21-9.07-.27-10.24-.18-3.26-.62-6.5-.8-9.76-.46-8.6,3.66-14.72,10.27-15.08,2.18-.11,2.86-.88,5-1a11.12,11.12,0,0,1,7.64,2c4.27,3.4,6.21,7.48,6.2,12.38,0,5.35,1,10.66.94,15.92-.08,7,1.1,12,1,20.83a17,17,0,0,1-4.16,10.39c-2.41,2.49-6.62,3.62-10,3.8-6.06.32-13.43-3.37-14.53-10.39C571.47,385.66,571.23,382.86,571.16,381.59Zm8.77-.56c.26,4.71,1.13,9.2,6.2,8.93,3.71-.2,5.17-3.45,5-6.62-.23-4.35-.82-8.58-1-12.93a6.62,6.62,0,0,1,.15-2.36c.77-2.5.06-3.91-.05-5.9-.38-7.15-.55-12-.61-13.13-.19-3.62-1.78-7.81-6-7.58-3.8.21-5.6,4-5.41,7.55.23,4.26.55,8.6.79,13a57.29,57.29,0,0,1,.61,6.42c.26,4.88-.5,5.83-.44,7C579.13,377.81,579.83,379,579.93,381Zm12.26-10.18a1.13,1.13,0,0,0,.68-1A.93.93,0,0,0,592,369c-.46-.07-.82,0-.77.95S591.66,371.06,592.19,370.85Z" transform="translate(-248.69 -292.23)"/><path d="M605.65,376.39a14.82,14.82,0,0,0,.43-2c-.07-1.45-.58-2.51-.74-3.77-.28-1.8-.38-3.7-.48-5.51-.12-2.27-.24-4.44-.32-6.07s.16-3.73.1-4.82c-.22-4.25-.43-6.51-.31-7.51.95-6.14,2-11.19,8.26-13.7a13.38,13.38,0,0,1,4.11-1.22c12.4-.66,16,7.77,16.49,16.46.14,2.63.3,5.52-3.05,5.7a7.66,7.66,0,0,1-3.55-.17,2.56,2.56,0,0,1-2.12-2.34c-.14-.9-.64-1.69-.68-2.42-.18-3.44-.53-8.23-5.23-8-6.7.36-4.49,11.23-4.19,16.84.09,1.63.36,3.25.44,4.79s0,2.54,0,4c.29,5.52.52,13.23,1,16.47a5.29,5.29,0,0,0,5.5,4.34c2.89-.16,4.39-2.69,4.25-5.31-.1-1.91-.37-3.52-.45-5.15-.21-3.9.16-5.46,4-5.67,1.9-.1,4.43-.33,5,1.91a31.58,31.58,0,0,1,.59,5.87c.32,6.07-1.3,14.69-8.65,16.53a25.87,25.87,0,0,1-6.11,1.15,18.18,18.18,0,0,1-7.65-2.14,11.6,11.6,0,0,1-5.6-8.05c-.62-3-1.14-6-1.2-7A13.22,13.22,0,0,1,605.65,376.39Zm4.61-12.14c.46,0,.62-.3.59-.85s-.86-.95-1.5-.91c-.45,0-.45.11-.43.47A1.22,1.22,0,0,0,610.26,364.25Z" transform="translate(-248.69 -292.23)"/><path d="M641.43,385.28c-.06-1.17.34-2.19.23-4.28s-1-8-1.14-11c-.07-1.45-.11-3.81-.19-5.35-.05-.9.5-2.56.4-4.46s-.72-3.24-1-5.58c-.43-3.06.14-6-.64-10.31-.4-2.34-.34-8.06-.43-9.78a2.8,2.8,0,0,1,2-3.2,17.16,17.16,0,0,1,3.7-.38c1.54-.08,3,.75,3.11,2.11a16,16,0,0,1,.35,3.24,16.44,16.44,0,0,0,.26,4.8,62.82,62.82,0,0,1,.7,7.95,22.93,22.93,0,0,0,.27,5.07c.24,1.08.63,1.69,1.26,1.66.82,0,1.48-1.26,1.71-2,1.41-4.25,1.8-5.45,2.23-5.93.26-.28.61-.48.78-.67.43-.48.1-1.55,1-3.51a49.34,49.34,0,0,0,2.1-4.83c.48-1.2,2.09-5.19,2.92-6.6a4.29,4.29,0,0,1,2.42-2.22c1.52-.53,3.36-.09,4.9-.17a1.55,1.55,0,0,1,1.72,1.64c.08,1.53-1.13,4.32-1.62,5.44l-6.33,14c-.41.84-1.31,4.34-1.87,5.82-1.28,3.25.67,7.41,2.09,10.24,2.24,4.42,4.34,8,5.5,11.23,1.5,4.28,3.07,6.38,3.9,8.33.94,2.22,1.46,3.55,1.33,4.47-.23,2.55-3.52,2.09-6.24,2.24-3,.16-3.65-2.17-4.6-4.57-.53-1.42-1.42-2.74-2-4.25-1.58-4.09-3.66-7.34-5.17-11.89-.34-1.16-1-2.4-1.94-2.35-1.45.08-2.94,2.88-3,4.16-.08,1.91-.07,3.91,0,5.45,0,1,.52,4.6.68,7.58a30.8,30.8,0,0,1,.17,4.9c-.32,2.65-4.41,2.41-5.77,2.48s-3.21-.55-3.35-3.27C641.79,390.26,641.58,388,641.43,385.28Zm4.44-.23c.36,0,.53-.12.52-.49a.48.48,0,0,0-.58-.51.42.42,0,0,0-.42.48C645.41,385,645.6,385.06,645.87,385.05Z" transform="translate(-248.69 -292.23)"/></svg>